:SAMPLES-PER-SECOND 30
:FULLY-SPECIFIED
:DEGREES
452
root  4.46689 39.8104 13.7323 165.805 65.3187 162.315
RightUpLeg  -13.9607 -9.83828 -10.4687
RightLeg  11.9338 -7.37775 -2.04501
RightFoot  -0.688047 -1.17377 12.4898
RightToes  -5.8209e-011 0 -3.6325e-017
Spine  3.25804 -4.55358 -2.02136
Spine1  20.0897 -7.90809 8.0397
HEad  -27.0951 -8.51983 -4.67577
LeftShoulder1  2.14061 -5.47856 -17.176
LeftArm  17.8846 5.53334 -63.9044
LeftForeArm  4.42151 -60.0858 -19.6476
LeftHand  -1.28137 -2.00362 20.1767
RightShoulder  0.798027 0.394847 13.6017
RightArm  -19.3344 3.06661 53.2826
RightForeArm  9.6928 35.6828 7.49099
RightHand  -0.724346 5.21937 -8.21488
LeftUpLeg  6.25485 -4.81974 1.4579
LeftLeg  12.859 -3.8902 0.123414
LeftFoot  0.675746 1.45416 -13.8017
LeftToes  6.82088e-011 -2.45093e-011 5.71991e-013
453
root  4.44113 39.8015 13.7158 166.182 64.8876 162.636
RightUpLeg  -14.066 -9.85714 -10.5292
RightLeg  12.1941 -7.75431 -2.1923
RightFoot  -0.787643 -1.16805 12.5415
RightToes  -5.8209e-011 0 -3.6325e-017
Spine  3.34938 -4.62371 -2.12612
Spine1  20.1029 -8.0727 8.23272
HEad  -27.0855 -8.84242 -4.73333
LeftShoulder1  2.10384 -5.39669 -16.9651
LeftArm  17.7858 5.08778 -64.2134
LeftForeArm  4.75185 -57.024 -17.1892
LeftHand  -1.18978 -2.23154 18.234
RightShoulder  0.821412 0.432114 14.0445
RightArm  -18.9314 1.84546 53.5035
RightForeArm  9.34078 30.9424 6.24962
RightHand  -0.703464 5.078 -8.08779
LeftUpLeg  6.12244 -4.8331 1.54231
LeftLeg  12.7979 -4.26831 0.0746467
LeftFoot  0.47893 1.4377 -13.863
LeftToes  6.82088e-011 -2.45093e-011 5.71991e-013
454
root  4.42101 39.7913 13.687 166.488 64.5342 162.937
RightUpLeg  -14.1164 -9.7791 -10.5532
RightLeg  12.404 -8.12166 -2.39655
RightFoot  -0.79984 -1.15327 12.3971
RightToes  -5.8209e-011 0 -3.6325e-017
Spine  3.43814 -4.73326 -2.25697
Spine1  20.0922 -8.29591 8.47604
HEad  -27.0283 -8.52848 -5.06705
LeftShoulder1  2.06147 -5.27584 -16.7944
LeftArm  17.3614 4.60456 -64.2751
LeftForeArm  5.34807 -52.9478 -14.5514
LeftHand  -1.08585 -2.59011 15.957
RightShoulder  0.846607 0.485287 14.434
RightArm  -18.0949 0.721319 53.5464
RightForeArm  9.23512 26.0225 5.09768
RightHand  -0.666149 4.92845 -7.77902
LeftUpLeg  6.04527 -4.88249 1.62046
LeftLeg  12.7937 -4.66189 0.00243094
LeftFoot  0.280333 1.42874 -14.0006
LeftToes  6.82088e-011 -2.45093e-011 5.71991e-013
455
root  4.4072 39.78 13.6499 166.601 64.3274 163.08
RightUpLeg  -14.1236 -9.71489 -10.6199
RightLeg  12.5892 -8.32376 -2.54572
RightFoot  -0.85607 -1.15406 12.465
RightToes  -5.8209e-011 0 -3.6325e-017
Spine  3.60613 -4.81838 -2.49173
Spine1  19.9752 -8.52026 8.79062
HEad  -27.0353 -7.90864 -5.3847
LeftShoulder1  2.04454 -5.19063 -16.8325
LeftArm  16.8696 4.14299 -63.9604
LeftForeArm  5.29855 -48.0553 -12.113
LeftHand  -1.00896 -2.70926 14.6441
RightShoulder  0.876913 0.582581 14.6931
RightArm  -18.775 -0.440838 53.3809
RightForeArm  11.1803 21.0957 4.81651
RightHand  -0.583737 4.80036 -6.9321
LeftUpLeg  6.02946 -4.80395 1.64594
LeftLeg  12.8583 -4.94441 -0.0738909
LeftFoot  0.090929 1.40851 -14.021
LeftToes  6.82088e-011 -2.45093e-011 5.71991e-013
456
root  4.4014 39.7619 13.6068 166.479 64.3266 163.042
RightUpLeg  -14.1753 -9.60244 -10.6815
RightLeg  12.8842 -8.34566 -2.67959
RightFoot  -0.806455 -1.1444 12.2964
RightToes  -5.8209e-011 0 -3.6325e-017
Spine  3.80978 -4.82161 -2.73747
Spine1  19.8648 -8.64209 9.06354
HEad  -27.0765 -7.53393 -5.49406
LeftShoulder1  2.03692 -5.10323 -16.9953
LeftArm  16.4587 3.68687 -63.4176
LeftForeArm  3.94699 -42.4572 -9.98725
LeftHand  -0.977394 -2.50546 14.5497
RightShoulder  0.899437 0.651599 14.8966
RightArm  -24.9182 -1.88578 52.9251
RightForeArm  18.3254 16.4937 6.35405
RightHand  -0.445827 4.54915 -5.48376
LeftUpLeg  6.14369 -4.53863 1.64004
LeftLeg  12.9098 -5.17646 -0.155197
LeftFoot  -0.155553 1.37559 -13.9829
LeftToes  6.82088e-011 -2.45093e-011 5.71991e-013
457
root  4.40709 39.7353 13.5554 166.176 64.5504 162.95
RightUpLeg  -14.2358 -9.28466 -10.6353
RightLeg  13.3112 -8.35992 -2.90241
RightFoot  -0.55035 -1.09081 11.4762
RightToes  -5.8209e-011 0 -3.6325e-017
Spine  3.90967 -4.78748 -2.87777
Spine1  20.0846 -8.68947 9.19822
HEad  -27.1174 -7.27004 -5.50893
LeftShoulder1  2.02056 -4.98473 -17.1443
LeftArm  15.974 3.28261 -62.7571
LeftForeArm  1.73687 -36.3374 -8.14872
LeftHand  -1.01248 -2.57972 14.9221
RightShoulder  0.896915 0.596399 15.1523
RightArm  -30.6976 -3.38529 52.5435
RightForeArm  24.0777 13.109 6.92116
RightHand  -0.307618 4.1163 -4.02935
LeftUpLeg  6.4915 -4.21638 1.653
LeftLeg  12.892 -5.41495 -0.232277
LeftFoot  -0.460192 1.35543 -14.1459
LeftToes  6.82088e-011 -2.45093e-011 5.71991e-013
458
root  4.41819 39.7074 13.4916 165.74 64.9786 162.85
RightUpLeg  -14.2059 -8.81217 -10.5285
RightLeg  13.7518 -8.38675 -3.15046
RightFoot  -0.326771 -1.02761 10.6044
RightToes  -5.8209e-011 0 -3.6325e-017
Spine  4.01433 -4.80488 -2.96899
Spine1  20.5377 -8.78755 9.26625
HEad  -27.1964 -6.64527 -5.62102
LeftShoulder1  1.99806 -4.80971 -17.3946
LeftArm  15.608 3.11817 -61.8305
LeftForeArm  -1.14331 -30.1841 -6.55286
LeftHand  -1.14883 -3.19389 15.7063
RightShoulder  0.873825 0.451702 15.3935
RightArm  -33.9043 -4.62077 52.2224
RightForeArm  26.9302 10.9241 6.78206
RightHand  -0.229009 3.66488 -3.19527
LeftUpLeg  7.05554 -3.86393 1.66935
LeftLeg  12.8322 -5.55848 -0.276164
LeftFoot  -0.768778 1.34631 -14.4396
LeftToes  6.82088e-011 -2.45093e-011 5.71991e-013
